<?xml version="1.0" encoding="UTF-8" standalone="no"?>
<!-- Generator: Adobe Illustrator 17.0.0, SVG Export Plug-In . SVG Version: 6.00 Build 0)  -->

<svg
   xmlns:dc="http://purl.org/dc/elements/1.1/"
   xmlns:cc="http://creativecommons.org/ns#"
   xmlns:rdf="http://www.w3.org/1999/02/22-rdf-syntax-ns#"
   xmlns:svg="http://www.w3.org/2000/svg"
   xmlns="http://www.w3.org/2000/svg"
   xmlns:sodipodi="http://sodipodi.sourceforge.net/DTD/sodipodi-0.dtd"
   xmlns:inkscape="http://www.inkscape.org/namespaces/inkscape"
   version="1.1"
   id="Layer_1"
   x="0px"
   y="0px"
   width="256"
   height="256"
   viewBox="0 0 256 256"
   enable-background="new 0 0 500 500"
   xml:space="preserve"
   inkscape:version="0.92.1 r15371"
   sodipodi:docname="Skyroom.svg"
   inkscape:export-filename="E:\Projects\Skyroom\Resources\logo\standard\1024x1024.png"
   inkscape:export-xdpi="384"
   inkscape:export-ydpi="384"><metadata
     id="metadata19"><rdf:RDF><cc:Work
         rdf:about=""><dc:format>image/svg+xml</dc:format><dc:type
           rdf:resource="http://purl.org/dc/dcmitype/StillImage" /><dc:title></dc:title></cc:Work></rdf:RDF></metadata><defs
     id="defs17" /><sodipodi:namedview
     pagecolor="#ffffff"
     bordercolor="#666666"
     borderopacity="1"
     objecttolerance="10"
     gridtolerance="10"
     guidetolerance="10"
     inkscape:pageopacity="0"
     inkscape:pageshadow="2"
     inkscape:window-width="1920"
     inkscape:window-height="1027"
     id="namedview15"
     showgrid="true"
     fit-margin-top="0"
     fit-margin-left="0"
     fit-margin-right="0"
     fit-margin-bottom="0"
     inkscape:zoom="2.0000001"
     inkscape:cx="-20.999973"
     inkscape:cy="104.7535"
     inkscape:window-x="-8"
     inkscape:window-y="-8"
     inkscape:window-maximized="1"
     inkscape:current-layer="Layer_1"
     inkscape:showpageshadow="false"><inkscape:grid
       type="xygrid"
       id="grid3755"
       empspacing="4"
       visible="true"
       enabled="true"
       snapvisiblegridlinesonly="true" /></sodipodi:namedview><g
     id="g3"
     transform="matrix(1.3560325,0,0,1.3560325,-211.7908,-212.66898)"
     style="fill:#3ba2ff;fill-opacity:0.94117647;stroke:none"><path
       d="m 229.138,208.687 c 0.108,-0.028 0.214,-0.063 0.323,-0.089 7.142,-1.779 14.017,-0.283 19.387,4.029 5.16,4.151 8.35,10.441 9.12,17.723 l 1.973,18.693 22.974,-8.536 -1.225,-17.79 c -1.004,-14.736 -6.69,-28.073 -16.556,-37.586 -10.705,-10.323 -25.168,-15.082 -40.87,-12.54 -6.79,1.097 -13.367,3.497 -19.501,7.036 4.172,1.075 8.102,3.002 11.612,5.73 7.307,5.677 11.691,14.229 12.763,23.33 z"
       id="path5"
       inkscape:connector-curvature="0"
       style="fill:#3ba2ff;fill-opacity:0.94117647;stroke:none" /><path
       d="m 303.85,239.381 -20.967,8.187 0,0 -1.435,0.561 -17.575,6.863 0,0.005 -26.248,10.257 c -6.633,2.593 -13.526,2.328 -19.421,-0.906 -6.129,-3.355 -10.412,-9.486 -11.91,-17.301 -3.613,1.34 -7.442,2.067 -11.343,2.067 -5.146,0 -10.076,-1.224 -14.653,-3.639 -4.171,-2.2 -7.745,-5.216 -10.585,-8.86 -0.578,7.291 -0.025,14.586 1.715,21.612 4.282,17.227 14.926,29.866 29.149,35.881 13.049,5.518 27.564,4.778 41.004,-1.421 l 37.676,-17.387 25.459,-11.74 c 8.659,-3.996 15.52,1.405 15.976,11.573 2.01,-1.068 4.05,-1.655 6.013,-1.655 2.037,0 3.86,0.614 5.418,1.824 1.152,0.895 2.066,2.099 2.766,3.517 0.737,-3.66 1.161,-7.315 1.213,-10.882 0.322,-22.154 -13.333,-35.944 -32.252,-28.556 z"
       id="path7"
       inkscape:connector-curvature="0"
       style="fill:#3ba2ff;fill-opacity:0.94117647;stroke:none" /><path
       d="m 311.263,314.553 c -2.302,-1.215 -4.007,-3.442 -4.932,-6.441 -0.456,-1.479 -0.707,-3.111 -0.769,-4.84 -8.503,4.527 -16.163,0.14 -16.861,-10.632 l -0.97,-14.89 -21.11,10.113 1.566,15.474 c 1.217,11.999 6.648,19.908 14.081,23.118 6.985,3.022 15.711,1.879 24.574,-3.755 3.081,-1.96 6.023,-4.382 8.773,-7.159 -0.072,0.002 -0.146,0.012 -0.218,0.012 -1.485,0 -2.876,-0.337 -4.134,-1 z"
       id="path9"
       inkscape:connector-curvature="0"
       style="fill:#3ba2ff;fill-opacity:0.94117647;stroke:none" /><path
       d="m 181.698,242.82 c 4.142,2.185 8.601,3.292 13.253,3.292 3.762,0 7.453,-0.749 10.915,-2.118 6.522,-2.578 12.219,-7.394 15.96,-13.813 3.708,-6.362 5.104,-13.616 4.411,-20.552 -0.853,-8.543 -4.88,-16.602 -11.705,-21.905 -4.002,-3.11 -8.606,-5.061 -13.49,-5.779 -1.384,-0.203 -2.787,-0.324 -4.21,-0.324 -10.557,0 -20.376,5.705 -26.268,15.261 -4.983,8.082 -6.444,17.835 -4.008,26.759 0.833,3.053 2.076,5.89 3.669,8.459 2.807,4.526 6.713,8.209 11.473,10.72 z"
       id="path11"
       inkscape:connector-curvature="0"
       style="fill:#3ba2ff;fill-opacity:0.94117647;stroke:none" /><path
       d="m 330.283,277.669 c -1.02,-0.792 -2.223,-1.193 -3.578,-1.193 -1.946,0 -4.052,0.804 -6.123,2.225 -3.043,2.087 -6.01,5.52 -8.277,9.798 -2.256,4.258 -3.54,8.784 -3.739,12.812 -0.106,2.155 0.093,4.169 0.632,5.918 0.685,2.222 1.883,3.837 3.465,4.671 0.821,0.434 1.742,0.654 2.734,0.654 1.188,0 2.446,-0.309 3.724,-0.879 3.916,-1.745 8.017,-5.96 10.845,-11.419 2.766,-5.339 3.924,-11.077 3.477,-15.591 -0.304,-3.075 -1.346,-5.587 -3.16,-6.996 z"
       id="path13"
       inkscape:connector-curvature="0"
       style="fill:#3ba2ff;fill-opacity:0.94117647;stroke:none" /></g></svg>